#!OML:ASF E:\pregnant2\Project 1\Capture day 1\Session 1\pregnant2.ASF
:FULLY-SPECIFIED
:DEGREES
2177
root -8.77519 10.1155 33.5229 -127.635 -63.347 202.022
lowerback 5.29862 0.617956 -0.441394
upperback -6.8991 0.223446 -4.05052
thorax -10.3286 -0.134457 -4.11874
lowerneck -23.0622 2.34387 -0.211655
upperneck 31.6884 5.69943 -8.68893
head 15.3099 0.836148 -2.56838
rclavicle -3.18055e-015 -4.13472e-014
rhumerus 40.9008 29.2474 -59.0676
rradius 43.7567
rwrist 5.93318
rhand -12.8348 -22.5594
rfingers 7.12502
rthumb 193.252 -232.118
lclavicle -3.18055e-015 -4.13472e-014
lhumerus 32.8803 -13.5067 71.5598
lradius 19.1265
lwrist 9.5451
lhand -20.9794 51.7021
lfingers 7.12502
lthumb 185.394 -98.3866
rfemur -130.66 3.38797 54.7583
rtibia 120.82
rfoot -24.0327 24.9507
rtoes 12.1481
lfemur -128.542 -0.953733 -33.7096
ltibia 129.624
lfoot -32.0956 4.97863
ltoes -31.0199
2178
root -8.75071 10.1297 33.5341 -128.03 -63.2092 202.348
lowerback 5.38395 0.574587 -0.44603
upperback -6.87771 0.152396 -4.12553
thorax -10.362 -0.173881 -4.18875
lowerneck -23.0487 2.33302 -0.17944
upperneck 31.5999 5.64912 -8.63003
head 15.2592 0.832588 -2.55438
rclavicle 4.92986e-014 1.59028e-014
rhumerus 40.9026 29.7239 -58.805
rradius 44.6624
rwrist 6.13743
rhand -12.107 -22.2836
rfingers 7.12502
rthumb 193.954 -231.795
lclavicle 4.92986e-014 1.59028e-014
lhumerus 32.9875 -13.153 71.3577
lradius 19.0339
lwrist 9.29846
lhand -20.9663 51.6714
lfingers 7.12502
lthumb 185.407 -98.4176
rfemur -130.458 3.56088 54.8523
rtibia 120.579
rfoot -23.9424 24.9832
rtoes 12.4238
lfemur -128.559 -0.78932 -33.6409
ltibia 129.571
lfoot -32.1588 5.11488
ltoes -30.9152
2179
root -8.72693 10.144 33.5455 -128.415 -63.0756 202.672
lowerback 5.45435 0.533177 -0.4582
upperback -6.84852 0.0848227 -4.19466
thorax -10.3776 -0.210237 -4.24791
lowerneck -23.0416 2.32156 -0.130065
upperneck 31.5037 5.59785 -8.58929
head 15.2081 0.82835 -2.55104
rclavicle -3.02153e-014 -5.56597e-014
rhumerus 40.9017 30.1605 -58.5356
rradius 45.5236
rwrist 6.41662
rhand -11.3105 -21.92
rfingers 7.12502
rthumb 194.721 -231.377
lclavicle -3.02153e-014 -5.56597e-014
lhumerus 33.1077 -12.7805 71.1791
lradius 18.9352
lwrist 9.04906
lhand -20.9591 51.6266
lfingers 7.12502
lthumb 185.414 -98.4625
rfemur -130.261 3.72654 54.9592
rtibia 120.337
rfoot -23.8243 25.0353
rtoes 12.7675
lfemur -128.58 -0.634965 -33.5844
ltibia 129.517
lfoot -32.2095 5.26007
ltoes -30.7683
2180
root -8.70385 10.1586 33.5567 -128.792 -62.9453 202.995
lowerback 5.51204 0.489597 -0.451545
upperback -6.81506 0.0167683 -4.26459
thorax -10.3809 -0.248083 -4.31806
lowerneck -23.0509 2.30986 -0.0998038
upperneck 31.4131 5.55045 -8.53419
head 15.1624 0.824875 -2.53783
rclavicle 1.59028e-014 1.19271e-014
rhumerus 40.8984 30.5832 -58.261
rradius 46.3618
rwrist 6.70064
rhand -10.482 -21.5284
rfingers 7.12502
rthumb 195.519 -230.926
lclavicle 1.59028e-014 1.19271e-014
lhumerus 33.2374 -12.3671 71.0306
lradius 18.818
lwrist 8.7732
lhand -20.9652 51.5747
lfingers 7.12502
lthumb 185.408 -98.5143
rfemur -130.069 3.88927 55.0846
rtibia 120.092
rfoot -23.6765 25.1006
rtoes 13.1972
lfemur -128.603 -0.492112 -33.5456
ltibia 129.457
lfoot -32.2425 5.43667
ltoes -30.6084
2181
root -8.68139 10.1734 33.5674 -129.163 -62.8161 203.321
lowerback 5.5554 0.445143 -0.466253
upperback -6.77743 -0.052227 -4.31812
thorax -10.3708 -0.283527 -4.35759
lowerneck -23.077 2.29807 -0.0878171
upperneck 31.3282 5.51097 -8.4784
head 15.1234 0.821837 -2.52001
rclavicle -1.90833e-014 -7.95139e-015
rhumerus 40.9012 30.9998 -57.9526
rradius 47.1887
rwrist 6.94818
rhand -9.61204 -21.1039
rfingers 7.12502
rthumb 196.357 -230.434
lclavicle -1.90833e-014 -7.95139e-015
lhumerus 33.3741 -11.8968 70.9352
lradius 18.6774
lwrist 8.45361
lhand -20.9747 51.5093
lfingers 7.12502
lthumb 185.399 -98.5795
rfemur -129.877 4.05305 55.2295
rtibia 119.844
rfoot -23.5085 25.1708
rtoes 13.6875
lfemur -128.631 -0.350328 -33.5223
ltibia 129.393
lfoot -32.2668 5.64235
ltoes -30.4708
